# xmcd
#
# Track frame offsets:
#	150
#	23313
#	58774
#	78715
#	105381
#	126586
#	148156
#	170645
#	197358
#	216099
#
# Disc length: 3248 seconds
#
# Revision: 5
# Processed by: cddbd v1.5.2PL0 Copyright (c) Steve Scherf et al.
# Submitted via: EZCDAudioConverter 8.0.2.1
#
DISCID=8b0cae0a
DTITLE=Tuấn Vũ, Phương Dung - Vùng Lá Me Bay
DYEAR=1991
DGENRE=Country
TTITLE0=Tuấn Vũ - Bướm trắng
TTITLE1=Phương Dung - Chuyến đi về sáng
TTITLE2=Tuấn Vũ - Cô hàng xóm
TTITLE3=Phương Dung - Chỉ có một người
TTITLE4=Tuấn Vũ - Kẻ ở miền xa
TTITLE5=Phương Dung - Hoa nở về đêm
TTITLE6=Tuấn Vũ - Kể chuyện trong đêm
TTITLE7=Phương Dung - Mưa đêm ngoại ô
TTITLE8=Tuấn Vũ - Vùng Lá Me Bay
TTITLE9=Phương Dung - Phố đêm
EXTD=
EXTT0=
EXTT1=
EXTT2=
EXTT3=
EXTT4=
EXTT5=
EXTT6=
EXTT7=
EXTT8=
EXTT9=
PLAYORDER=
